<svg width="1024" height="576" viewBox="0 0 1024 576" fill="none" xmlns="http://www.w3.org/2000/svg" role="img" aria-labelledby="title desc">
  <title id="title">National Honor Society logo</title>
  <desc id="desc">A blue and white National Honor Society shield with torch.</desc>
  <rect width="1024" height="576" fill="transparent"/>
  <g transform="translate(294 22)">
    <path d="M85 70L50 0H386L351 70H438L354 500H245L238 532C237 546 224 558 208 558C192 558 179 546 178 532L171 500H82L0 70H85Z" fill="#fff"/>
    <path d="M85 70L50 0H386L351 70H438L354 500H245L238 532C237 546 224 558 208 558C192 558 179 546 178 532L171 500H82L0 70H85Z" stroke="#082267" stroke-width="18" stroke-linejoin="round"/>
    <path d="M117 54H321L301 95H408L334 465H220L214 494L207 528L199 494L192 465H102L30 95H137L117 54Z" stroke="#082267" stroke-width="8" stroke-linejoin="round"/>

    <text x="219" y="93" fill="#082267" font-family="Arial, Helvetica, sans-serif" font-size="43" font-weight="800" text-anchor="middle" letter-spacing="4">NATIONAL</text>
    <text x="219" y="140" fill="#082267" font-family="Arial, Helvetica, sans-serif" font-size="43" font-weight="800" text-anchor="middle" letter-spacing="3">HONOR SOCIETY</text>

    <path d="M212 296H272L261 318H223L218 465H188L183 318H145L134 296H194V265H212V296Z" fill="#082267"/>
    <path d="M178 250C184 223 218 212 208 174C229 190 240 215 220 240C236 230 252 214 248 183C275 216 258 254 222 268C206 274 190 268 178 250Z" fill="#B7A06A"/>
    <path d="M194 255C192 233 210 218 205 195C216 206 220 220 214 234C224 227 232 216 232 200C246 223 233 249 206 263C200 263 196 260 194 255Z" fill="#fff" opacity=".55"/>

    <path d="M90 345L55 306L79 448H142V415H111L134 374H101L90 345Z" fill="#082267"/>
    <path d="M324 345L359 306L335 448H272V415H303L280 374H313L324 345Z" fill="#082267"/>
  </g>
</svg>
